<svg width="200" height="200" viewBox="0 0 200 200" xmlns="http://www.w3.org/2000/svg">
  <defs>
    <linearGradient id="foxOrange" x1="0%" y1="0%" x2="0%" y2="100%">
      <stop offset="0%" style="stop-color:#e67e22;stop-opacity:1" />
      <stop offset="100%" style="stop-color:#d35400;stop-opacity:1" />
    </linearGradient>
    <radialGradient id="foxWhite" cx="50%" cy="50%">
      <stop offset="0%" style="stop-color:#ffffff;stop-opacity:1" />
      <stop offset="100%" style="stop-color:#f5f5f5;stop-opacity:1" />
    </radialGradient>
  </defs>

  <!-- Background -->
  <circle cx="100" cy="100" r="100" fill="#fff5e6"/>

  <!-- Ears -->
  <path d="M 60 60 L 45 25 L 75 55 Z" fill="url(#foxOrange)"/>
  <path d="M 140 60 L 155 25 L 125 55 Z" fill="url(#foxOrange)"/>
  <path d="M 63 55 L 52 32 L 72 52 Z" fill="#2a2a2a"/>
  <path d="M 137 55 L 148 32 L 128 52 Z" fill="#2a2a2a"/>

  <!-- Head -->
  <circle cx="100" cy="100" r="55" fill="url(#foxOrange)"/>

  <!-- White face markings -->
  <ellipse cx="100" cy="115" rx="40" ry="45" fill="url(#foxWhite)"/>
  <ellipse cx="100" cy="100" rx="35" ry="30" fill="url(#foxWhite)"/>

  <!-- Eyes -->
  <ellipse cx="85" cy="95" rx="8" ry="12" fill="#2a2a1a"/>
  <ellipse cx="115" cy="95" rx="8" ry="12" fill="#2a2a1a"/>
  <ellipse cx="83" cy="92" rx="3" ry="4" fill="white"/>
  <ellipse cx="113" cy="92" rx="3" ry="4" fill="white"/>

  <!-- Nose -->
  <ellipse cx="100" cy="115" rx="6" ry="5" fill="#1a1a1a"/>

  <!-- Mouth -->
  <path d="M 100 115 L 100 122" stroke="#2a2a2a" stroke-width="1.5"/>
  <path d="M 88 122 Q 100 128 112 122" stroke="#2a2a1a" stroke-width="1.5" fill="none"/>

  <!-- Cheek fluff -->
  <ellipse cx="65" cy="110" rx="15" ry="20" fill="url(#foxOrange)"/>
  <ellipse cx="135" cy="110" rx="15" ry="20" fill="url(#foxOrange)"/>
</svg>
