<svg width="200" height="200" viewBox="0 0 200 200" xmlns="http://www.w3.org/2000/svg">
  <defs>
    <radialGradient id="owlBody" cx="50%" cy="50%">
      <stop offset="0%" style="stop-color:#8b7355;stop-opacity:1" />
      <stop offset="100%" style="stop-color:#6b5335;stop-opacity:1" />
    </radialGradient>
    <radialGradient id="owlFace" cx="50%" cy="50%">
      <stop offset="0%" style="stop-color:#d4b896;stop-opacity:1" />
      <stop offset="100%" style="stop-color:#b49876;stop-opacity:1" />
    </radialGradient>
  </defs>

  <!-- Background -->
  <circle cx="100" cy="100" r="100" fill="#e8f4ff"/>

  <!-- Body -->
  <ellipse cx="100" cy="120" rx="60" ry="70" fill="url(#owlBody)"/>

  <!-- Feather pattern -->
  <path d="M 70 110 Q 75 115 70 120" stroke="#5b4325" stroke-width="1.5" fill="none"/>
  <path d="M 80 120 Q 85 125 80 130" stroke="#5b4325" stroke-width="1.5" fill="none"/>
  <path d="M 90 130 Q 95 135 90 140" stroke="#5b4325" stroke-width="1.5" fill="none"/>
  <path d="M 130 110 Q 125 115 130 120" stroke="#5b4325" stroke-width="1.5" fill="none"/>
  <path d="M 120 120 Q 115 125 120 130" stroke="#5b4325" stroke-width="1.5" fill="none"/>
  <path d="M 110 130 Q 105 135 110 140" stroke="#5b4325" stroke-width="1.5" fill="none"/>

  <!-- Head -->
  <circle cx="100" cy="80" r="45" fill="url(#owlBody)"/>

  <!-- Ear tufts -->
  <path d="M 65 50 L 70 30 L 75 50 Z" fill="#6b5335"/>
  <path d="M 125 50 L 130 30 L 135 50 Z" fill="#6b5335"/>

  <!-- Face disk -->
  <circle cx="100" cy="85" r="35" fill="url(#owlFace)"/>

  <!-- Eye patches -->
  <circle cx="80" cy="80" r="18" fill="white"/>
  <circle cx="120" cy="80" r="18" fill="white"/>
  <circle cx="80" cy="80" r="16" fill="#f4e4c4"/>
  <circle cx="120" cy="80" r="16" fill="#f4e4c4"/>

  <!-- Eyes -->
  <circle cx="80" cy="80" r="10" fill="#2a2a1a"/>
  <circle cx="120" cy="80" r="10" fill="#2a2a1a"/>
  <circle cx="78" cy="77" r="4" fill="#f4d03f"/>
  <circle cx="118" cy="77" r="4" fill="#f4d03f"/>
  <circle cx="81" cy="76" r="2" fill="white"/>
  <circle cx="121" cy="76" r="2" fill="white"/>

  <!-- Beak -->
  <path d="M 100 95 L 95 105 L 105 105 Z" fill="#e6a83a"/>

  <!-- Wings -->
  <ellipse cx="50" cy="130" rx="15" ry="35" fill="#7b6345" transform="rotate(-20 50 130)"/>
  <ellipse cx="150" cy="130" rx="15" ry="35" fill="#7b6345" transform="rotate(20 150 130)"/>
</svg>
