<svg width="200" height="200" viewBox="0 0 200 200" xmlns="http://www.w3.org/2000/svg">
  <defs>
    <clipPath id="circle">
      <circle cx="100" cy="100" r="100"/>
    </clipPath>
    <radialGradient id="turtleShell" cx="50%" cy="50%">
      <stop offset="0%" style="stop-color:#5a7c3e;stop-opacity:1" />
      <stop offset="100%" style="stop-color:#3a4f28;stop-opacity:1" />
    </radialGradient>
    <radialGradient id="turtleSkin" cx="50%" cy="50%">
      <stop offset="0%" style="stop-color:#7a9d54;stop-opacity:1" />
      <stop offset="100%" style="stop-color:#5a7c3e;stop-opacity:1" />
    </radialGradient>
  </defs>

  <!-- Background -->
  <circle cx="100" cy="100" r="100" fill="#e8f4f8"/>

  <!-- Turtle Shell -->
  <ellipse cx="100" cy="110" rx="60" ry="50" fill="url(#turtleShell)"/>

  <!-- Shell Pattern -->
  <ellipse cx="100" cy="100" rx="15" ry="12" fill="#4a6332"/>
  <ellipse cx="80" cy="110" rx="12" ry="10" fill="#4a6332"/>
  <ellipse cx="120" cy="110" rx="12" ry="10" fill="#4a6332"/>
  <ellipse cx="90" cy="130" rx="10" ry="8" fill="#4a6332"/>
  <ellipse cx="110" cy="130" rx="10" ry="8" fill="#4a6332"/>

  <!-- Head -->
  <ellipse cx="100" cy="70" rx="20" ry="22" fill="url(#turtleSkin)"/>

  <!-- Eyes -->
  <circle cx="92" cy="68" r="3" fill="#2a2a2a"/>
  <circle cx="108" cy="68" r="3" fill="#2a2a2a"/>
  <circle cx="93" cy="67" r="1" fill="white"/>
  <circle cx="109" cy="67" r="1" fill="white"/>

  <!-- Smile -->
  <path d="M 95 75 Q 100 77 105 75" stroke="#2a2a2a" stroke-width="1.5" fill="none"/>

  <!-- Front Flippers -->
  <ellipse cx="70" cy="120" rx="12" ry="20" fill="url(#turtleSkin)" transform="rotate(-20 70 120)"/>
  <ellipse cx="130" cy="120" rx="12" ry="20" fill="url(#turtleSkin)" transform="rotate(20 130 120)"/>
</svg>
